<mxfile host="app.diagrams.net" modified="2023-12-10T03:40:21.747Z" agent="Mozilla/5.0 (Windows NT 10.0; Win64; x64) AppleWebKit/537.36 (KHTML, like Gecko) Chrome/118.0.5993.2470 YaBrowser/23.11.0.2470 Yowser/2.5 Safari/537.36" version="22.1.7" etag="njl--z167xIU8S-1Q2L2" type="github">
  <diagram name="Страница — 1" id="L3PKJxNTwHp6rq7nzCVX">
    <mxGraphModel>
      <root>
        <mxCell id="0" />
        <mxCell id="1" parent="0" />
      </root>
    </mxGraphModel>
  </diagram>
</mxfile>
